<svg height="2686" width="720" xmlns="http://www.w3.org/2000/svg">
<rect height="2686" fill="#555" width="720"></rect>
<text fill="#7f7" font-family="Courier New" font-size="12" xml:space="preserve">
<tspan x="10" y="26">100 megabytes installed</tspan>
<tspan x="10" y="42"></tspan>
<tspan x="10" y="58">node_modules</tspan>
<tspan x="10" y="74">└─┬ schenkerian@0.6.12 </tspan>
<tspan x="10" y="90">  ├── bluebird@3.5.0 </tspan>
<tspan x="10" y="106">  ├─┬ cheerio@0.22.0 </tspan>
<tspan x="10" y="122">  │ ├─┬ css-select@1.2.0 </tspan>
<tspan x="10" y="138">  │ │ ├── boolbase@1.0.0 </tspan>
<tspan x="10" y="154">  │ │ ├── css-what@2.1.0 </tspan>
<tspan x="10" y="170">  │ │ └── nth-check@1.0.1 </tspan>
<tspan x="10" y="186">  │ ├─┬ dom-serializer@0.1.0 </tspan>
<tspan x="10" y="202">  │ │ └── domelementtype@1.1.3 </tspan>
<tspan x="10" y="218">  │ ├── entities@1.1.1 </tspan>
<tspan x="10" y="234">  │ ├── lodash.assignin@4.2.0 </tspan>
<tspan x="10" y="250">  │ ├── lodash.bind@4.2.1 </tspan>
<tspan x="10" y="266">  │ ├── lodash.defaults@4.2.0 </tspan>
<tspan x="10" y="282">  │ ├── lodash.filter@4.6.0 </tspan>
<tspan x="10" y="298">  │ ├── lodash.flatten@4.4.0 </tspan>
<tspan x="10" y="314">  │ ├── lodash.foreach@4.5.0 </tspan>
<tspan x="10" y="330">  │ ├── lodash.map@4.6.0 </tspan>
<tspan x="10" y="346">  │ ├── lodash.merge@4.6.0 </tspan>
<tspan x="10" y="362">  │ ├── lodash.pick@4.4.0 </tspan>
<tspan x="10" y="378">  │ ├── lodash.reduce@4.6.0 </tspan>
<tspan x="10" y="394">  │ ├── lodash.reject@4.6.0 </tspan>
<tspan x="10" y="410">  │ └── lodash.some@4.6.0 </tspan>
<tspan x="10" y="426">  ├─┬ cornet@0.1.5  (git+https://github.com/mix/node-cornet.git#e4f88bf15b144aac6093fa404d4bf21a\</tspan>
<tspan x="10" y="442">2e735949)</tspan>
<tspan x="10" y="458">  │ ├─┬ CSSselect@0.3.11 </tspan>
<tspan x="10" y="474">  │ │ ├── CSSwhat@0.4.7 </tspan>
<tspan x="10" y="490">  │ │ └── domutils@1.2.2 </tspan>
<tspan x="10" y="506">  │ ├── domhandler@2.1.0 </tspan>
<tspan x="10" y="522">  │ └── domutils@1.1.6 </tspan>
<tspan x="10" y="538">  ├─┬ gramophone@0.0.3 </tspan>
<tspan x="10" y="554">  │ ├─┬ event-stream@3.0.20 </tspan>
<tspan x="10" y="570">  │ │ ├── duplexer@0.1.1 </tspan>
<tspan x="10" y="586">  │ │ ├── from@0.1.7 </tspan>
<tspan x="10" y="602">  │ │ ├── map-stream@0.0.7 </tspan>
<tspan x="10" y="618">  │ │ ├── pause-stream@0.0.11 </tspan>
<tspan x="10" y="634">  │ │ ├── split@0.2.10 </tspan>
<tspan x="10" y="650">  │ │ ├── stream-combiner@0.0.4 </tspan>
<tspan x="10" y="666">  │ │ └── through@2.3.8 </tspan>
<tspan x="10" y="682">  │ ├── lodash@0.8.2 </tspan>
<tspan x="10" y="698">  │ ├── natural@0.1.29 </tspan>
<tspan x="10" y="714">  │ └── underscore.string@2.3.3 </tspan>
<tspan x="10" y="730">  ├─┬ htmlparser2@3.9.2 </tspan>
<tspan x="10" y="746">  │ ├── domelementtype@1.3.0 </tspan>
<tspan x="10" y="762">  │ ├── domhandler@2.3.0 </tspan>
<tspan x="10" y="778">  │ ├── domutils@1.5.1 </tspan>
<tspan x="10" y="794">  │ ├── inherits@2.0.3 </tspan>
<tspan x="10" y="810">  │ └─┬ readable-stream@2.2.9 </tspan>
<tspan x="10" y="826">  │   ├── buffer-shims@1.0.0 </tspan>
<tspan x="10" y="842">  │   ├── core-util-is@1.0.2 </tspan>
<tspan x="10" y="858">  │   ├── isarray@1.0.0 </tspan>
<tspan x="10" y="874">  │   ├── process-nextick-args@1.0.7 </tspan>
<tspan x="10" y="890">  │   ├── string_decoder@1.0.0 </tspan>
<tspan x="10" y="906">  │   └── util-deprecate@1.0.2 </tspan>
<tspan x="10" y="922">  ├── lodash@4.17.4 </tspan>
<tspan x="10" y="938">  ├─┬ natural@0.5.1 </tspan>
<tspan x="10" y="954">  │ ├── apparatus@0.0.9 </tspan>
<tspan x="10" y="970">  │ ├── sylvester@0.0.21 </tspan>
<tspan x="10" y="986">  │ ├── underscore@1.8.3 </tspan>
<tspan x="10" y="1002">  │ └─┬ webworker-threads@0.7.11 </tspan>
<tspan x="10" y="1018">  │   ├── bindings@1.2.1 </tspan>
<tspan x="10" y="1034">  │   └── nan@2.6.2 </tspan>
<tspan x="10" y="1050">  ├─┬ phantomjs-prebuilt@2.1.14 </tspan>
<tspan x="10" y="1066">  │ ├── es6-promise@4.0.5 </tspan>
<tspan x="10" y="1082">  │ ├─┬ extract-zip@1.5.0 </tspan>
<tspan x="10" y="1098">  │ │ ├─┬ concat-stream@1.5.0 </tspan>
<tspan x="10" y="1114">  │ │ │ ├─┬ readable-stream@2.0.6 </tspan>
<tspan x="10" y="1130">  │ │ │ │ └── string_decoder@0.10.31 </tspan>
<tspan x="10" y="1146">  │ │ │ └── typedarray@0.0.6 </tspan>
<tspan x="10" y="1162">  │ │ ├── debug@0.7.4 </tspan>
<tspan x="10" y="1178">  │ │ ├─┬ mkdirp@0.5.0 </tspan>
<tspan x="10" y="1194">  │ │ │ └── minimist@0.0.8 </tspan>
<tspan x="10" y="1210">  │ │ └─┬ yauzl@2.4.1 </tspan>
<tspan x="10" y="1226">  │ │   └─┬ fd-slicer@1.0.1 </tspan>
<tspan x="10" y="1242">  │ │     └── pend@1.2.0 </tspan>
<tspan x="10" y="1258">  │ ├─┬ fs-extra@1.0.0 </tspan>
<tspan x="10" y="1274">  │ │ ├── graceful-fs@4.1.11 </tspan>
<tspan x="10" y="1290">  │ │ ├── jsonfile@2.4.0 </tspan>
<tspan x="10" y="1306">  │ │ └── klaw@1.3.1 </tspan>
<tspan x="10" y="1322">  │ ├─┬ hasha@2.2.0 </tspan>
<tspan x="10" y="1338">  │ │ ├── is-stream@1.1.0 </tspan>
<tspan x="10" y="1354">  │ │ └─┬ pinkie-promise@2.0.1 </tspan>
<tspan x="10" y="1370">  │ │   └── pinkie@2.0.4 </tspan>
<tspan x="10" y="1386">  │ ├── kew@0.7.0 </tspan>
<tspan x="10" y="1402">  │ ├── progress@1.1.8 </tspan>
<tspan x="10" y="1418">  │ ├─┬ request@2.79.0 </tspan>
<tspan x="10" y="1434">  │ │ ├── aws-sign2@0.6.0 </tspan>
<tspan x="10" y="1450">  │ │ ├── aws4@1.6.0 </tspan>
<tspan x="10" y="1466">  │ │ ├── caseless@0.11.0 </tspan>
<tspan x="10" y="1482">  │ │ ├─┬ combined-stream@1.0.5 </tspan>
<tspan x="10" y="1498">  │ │ │ └── delayed-stream@1.0.0 </tspan>
<tspan x="10" y="1514">  │ │ ├── extend@3.0.0 </tspan>
<tspan x="10" y="1530">  │ │ ├── forever-agent@0.6.1 </tspan>
<tspan x="10" y="1546">  │ │ ├─┬ form-data@2.1.4 </tspan>
<tspan x="10" y="1562">  │ │ │ └── asynckit@0.4.0 </tspan>
<tspan x="10" y="1578">  │ │ ├─┬ har-validator@2.0.6 </tspan>
<tspan x="10" y="1594">  │ │ │ ├─┬ chalk@1.1.3 </tspan>
<tspan x="10" y="1610">  │ │ │ │ ├── ansi-styles@2.2.1 </tspan>
<tspan x="10" y="1626">  │ │ │ │ ├── escape-string-regexp@1.0.5 </tspan>
<tspan x="10" y="1642">  │ │ │ │ ├─┬ has-ansi@2.0.0 </tspan>
<tspan x="10" y="1658">  │ │ │ │ │ └── ansi-regex@2.1.1 </tspan>
<tspan x="10" y="1674">  │ │ │ │ ├── strip-ansi@3.0.1 </tspan>
<tspan x="10" y="1690">  │ │ │ │ └── supports-color@2.0.0 </tspan>
<tspan x="10" y="1706">  │ │ │ ├─┬ commander@2.9.0 </tspan>
<tspan x="10" y="1722">  │ │ │ │ └── graceful-readlink@1.0.1 </tspan>
<tspan x="10" y="1738">  │ │ │ └─┬ is-my-json-valid@2.16.0 </tspan>
<tspan x="10" y="1754">  │ │ │   ├── generate-function@2.0.0 </tspan>
<tspan x="10" y="1770">  │ │ │   ├─┬ generate-object-property@1.2.0 </tspan>
<tspan x="10" y="1786">  │ │ │   │ └── is-property@1.0.2 </tspan>
<tspan x="10" y="1802">  │ │ │   ├── jsonpointer@4.0.1 </tspan>
<tspan x="10" y="1818">  │ │ │   └── xtend@4.0.1 </tspan>
<tspan x="10" y="1834">  │ │ ├─┬ hawk@3.1.3 </tspan>
<tspan x="10" y="1850">  │ │ │ ├── boom@2.10.1 </tspan>
<tspan x="10" y="1866">  │ │ │ ├── cryptiles@2.0.5 </tspan>
<tspan x="10" y="1882">  │ │ │ ├── hoek@2.16.3 </tspan>
<tspan x="10" y="1898">  │ │ │ └── sntp@1.0.9 </tspan>
<tspan x="10" y="1914">  │ │ ├─┬ http-signature@1.1.1 </tspan>
<tspan x="10" y="1930">  │ │ │ ├── assert-plus@0.2.0 </tspan>
<tspan x="10" y="1946">  │ │ │ ├─┬ jsprim@1.4.0 </tspan>
<tspan x="10" y="1962">  │ │ │ │ ├── assert-plus@1.0.0 </tspan>
<tspan x="10" y="1978">  │ │ │ │ ├── extsprintf@1.0.2 </tspan>
<tspan x="10" y="1994">  │ │ │ │ ├── json-schema@0.2.3 </tspan>
<tspan x="10" y="2010">  │ │ │ │ └── verror@1.3.6 </tspan>
<tspan x="10" y="2026">  │ │ │ └─┬ sshpk@1.13.0 </tspan>
<tspan x="10" y="2042">  │ │ │   ├── asn1@0.2.3 </tspan>
<tspan x="10" y="2058">  │ │ │   ├── assert-plus@1.0.0 </tspan>
<tspan x="10" y="2074">  │ │ │   ├── bcrypt-pbkdf@1.0.1 </tspan>
<tspan x="10" y="2090">  │ │ │   ├─┬ dashdash@1.14.1 </tspan>
<tspan x="10" y="2106">  │ │ │   │ └── assert-plus@1.0.0 </tspan>
<tspan x="10" y="2122">  │ │ │   ├── ecc-jsbn@0.1.1 </tspan>
<tspan x="10" y="2138">  │ │ │   ├─┬ getpass@0.1.6 </tspan>
<tspan x="10" y="2154">  │ │ │   │ └── assert-plus@1.0.0 </tspan>
<tspan x="10" y="2170">  │ │ │   ├── jodid25519@1.0.2 </tspan>
<tspan x="10" y="2186">  │ │ │   ├── jsbn@0.1.1 </tspan>
<tspan x="10" y="2202">  │ │ │   └── tweetnacl@0.14.5 </tspan>
<tspan x="10" y="2218">  │ │ ├── is-typedarray@1.0.0 </tspan>
<tspan x="10" y="2234">  │ │ ├── isstream@0.1.2 </tspan>
<tspan x="10" y="2250">  │ │ ├── json-stringify-safe@5.0.1 </tspan>
<tspan x="10" y="2266">  │ │ ├─┬ mime-types@2.1.15 </tspan>
<tspan x="10" y="2282">  │ │ │ └── mime-db@1.27.0 </tspan>
<tspan x="10" y="2298">  │ │ ├── oauth-sign@0.8.2 </tspan>
<tspan x="10" y="2314">  │ │ ├── qs@6.3.2 </tspan>
<tspan x="10" y="2330">  │ │ ├── stringstream@0.0.5 </tspan>
<tspan x="10" y="2346">  │ │ ├─┬ tough-cookie@2.3.2 </tspan>
<tspan x="10" y="2362">  │ │ │ └── punycode@1.4.1 </tspan>
<tspan x="10" y="2378">  │ │ ├── tunnel-agent@0.4.3 </tspan>
<tspan x="10" y="2394">  │ │ └── uuid@3.0.1 </tspan>
<tspan x="10" y="2410">  │ ├─┬ request-progress@2.0.1 </tspan>
<tspan x="10" y="2426">  │ │ └── throttleit@1.0.0 </tspan>
<tspan x="10" y="2442">  │ └─┬ which@1.2.14 </tspan>
<tspan x="10" y="2458">  │   └── isexe@2.0.0 </tspan>
<tspan x="10" y="2474">  └─┬ yamljs@0.2.10 </tspan>
<tspan x="10" y="2490">    ├─┬ argparse@1.0.9 </tspan>
<tspan x="10" y="2506">    │ └── sprintf-js@1.0.3 </tspan>
<tspan x="10" y="2522">    └─┬ glob@7.1.1 </tspan>
<tspan x="10" y="2538">      ├── fs.realpath@1.0.0 </tspan>
<tspan x="10" y="2554">      ├─┬ inflight@1.0.6 </tspan>
<tspan x="10" y="2570">      │ └── wrappy@1.0.2 </tspan>
<tspan x="10" y="2586">      ├─┬ minimatch@3.0.3 </tspan>
<tspan x="10" y="2602">      │ └─┬ brace-expansion@1.1.7 </tspan>
<tspan x="10" y="2618">      │   ├── balanced-match@0.4.2 </tspan>
<tspan x="10" y="2634">      │   └── concat-map@0.0.1 </tspan>
<tspan x="10" y="2650">      ├── once@1.4.0 </tspan>
<tspan x="10" y="2666">      └── path-is-absolute@1.0.1</tspan>
</text>
</svg>
